<svg width="240" height="83" viewBox="0 0 240 83" fill="none" xmlns="http://www.w3.org/2000/svg">
<path d="M80.9804 56.9512C77.3103 65.991 70.5393 73.4673 61.8526 78.0712C53.1659 82.6752 43.1171 84.1134 33.4653 82.1341C23.8135 80.1549 15.1738 74.8842 9.05867 67.2449C2.94352 59.6056 -0.257433 50.0844 0.016183 40.3481C0.289799 30.6117 4.02055 21.2807 10.5553 13.9885C17.0901 6.69624 26.0125 1.90748 35.7605 0.460502C45.5086 -0.986473 55.4611 1.00055 63.8759 6.07371C72.2906 11.1469 78.6314 18.9829 81.7881 28.2101L76.3706 30.0196C73.6437 22.0488 68.1663 15.2797 60.8973 10.8973C53.6283 6.51491 45.0309 4.79844 36.6101 6.0484C28.1893 7.29836 20.4818 11.4351 14.8368 17.7344C9.19179 24.0337 5.96902 32.0943 5.73266 40.5049C5.4963 48.9156 8.26141 57.1404 13.5439 63.7395C18.8265 70.3387 26.2898 74.8917 34.6274 76.6014C42.965 78.3112 51.6455 77.0688 59.1495 73.0917C66.6534 69.1146 72.5025 62.6563 75.6729 54.8473L80.9804 56.9512Z" fill="white"/>
<circle cx="41.5" cy="41.5" r="29.5" fill="white"/>
<path d="M91.7695 50.2461C90.4492 50.2461 89.2617 50.1094 88.207 49.8359C87.1523 49.5625 86.1094 49.0703 85.0781 48.3594V44.082H87.9727L88.3359 46.4375C88.6328 46.7266 89.0938 46.9648 89.7188 47.1523C90.3438 47.3398 91.0273 47.4336 91.7695 47.4336C92.3398 47.4336 92.8203 47.3594 93.2109 47.2109C93.6016 47.0547 93.8984 46.8359 94.1016 46.5547C94.3047 46.2656 94.4062 45.9258 94.4062 45.5352C94.4062 45.1602 94.3125 44.8281 94.125 44.5391C93.9453 44.2422 93.6445 43.9688 93.2227 43.7188C92.8008 43.4688 92.2305 43.2227 91.5117 42.9805C90.1055 42.5508 88.9453 42.0977 88.0312 41.6211C87.125 41.1367 86.4453 40.5664 85.9922 39.9102C85.5469 39.2461 85.3242 38.4336 85.3242 37.4727C85.3242 36.543 85.5859 35.7266 86.1094 35.0234C86.6406 34.3125 87.3672 33.7539 88.2891 33.3477C89.2109 32.9414 90.2734 32.7305 91.4766 32.7148C92.8281 32.6836 94.0234 32.8281 95.0625 33.1484C96.1016 33.4688 97.0078 33.9297 97.7812 34.5312V38.5039H94.9922L94.5234 36.1953C94.2422 36.0312 93.8516 35.8867 93.3516 35.7617C92.8594 35.6367 92.3125 35.5742 91.7109 35.5742C91.1953 35.5742 90.7383 35.6484 90.3398 35.7969C89.9492 35.9375 89.6367 36.1523 89.4023 36.4414C89.1758 36.7227 89.0625 37.0703 89.0625 37.4844C89.0625 37.8203 89.1602 38.1211 89.3555 38.3867C89.5508 38.6523 89.8867 38.9102 90.3633 39.1602C90.8398 39.4023 91.5 39.6719 92.3438 39.9688C94.25 40.5156 95.6953 41.2188 96.6797 42.0781C97.6719 42.9375 98.168 44.082 98.168 45.5117C98.168 46.5039 97.8984 47.3555 97.3594 48.0664C96.8281 48.7695 96.082 49.3086 95.1211 49.6836C94.1602 50.0586 93.043 50.2461 91.7695 50.2461ZM99.1406 50V47.7852L100.359 47.6094L105.621 32.9375H109.57L114.82 47.6094L116.027 47.7852V50H109.957V47.7852L111.105 47.5742L110.461 45.4648H104.707L104.086 47.5742L105.234 47.7852V50H99.1406ZM105.551 42.7695H109.617L107.789 37.2383L107.613 36.6875H107.543L107.355 37.2852L105.551 42.7695ZM116.93 50V47.7852L118.723 47.4219V35.5273L116.93 35.1641V32.9375H118.723H124.371L128.766 44.5156H128.836L133.113 32.9375H140.508V35.1641L138.703 35.5273V47.4219L140.508 47.7852V50H133.172V47.7852L135.047 47.4219V44.6445L135.117 36.793L135.047 36.7812L130.078 49.8828H127.184L122.121 36.9102L122.039 36.9219L122.285 44.1992V47.4219L124.277 47.7852V50H116.93ZM150.094 50.2461C148.688 50.2461 147.453 50.0117 146.391 49.543C145.336 49.0742 144.52 48.3906 143.941 47.4922C143.363 46.5859 143.074 45.4844 143.074 44.1875V35.5273L141.281 35.1641V32.9375H148.617V35.1641L146.824 35.5273V44.1875C146.824 44.9062 146.953 45.5039 147.211 45.9805C147.469 46.457 147.84 46.8125 148.324 47.0469C148.816 47.2812 149.402 47.3984 150.082 47.3984C150.785 47.3984 151.383 47.2812 151.875 47.0469C152.367 46.8125 152.738 46.457 152.988 45.9805C153.246 45.5039 153.375 44.9062 153.375 44.1875V35.5273L151.594 35.1641V32.9375H158.93V35.1641L157.125 35.5273V44.1875C157.125 45.4688 156.828 46.5625 156.234 47.4688C155.648 48.375 154.828 49.0664 153.773 49.543C152.727 50.0117 151.5 50.2461 150.094 50.2461ZM159.82 50V47.7852L161.625 47.4219V35.5273L159.82 35.1641V32.9375H173.25V37.6953H170.402L170.273 35.8203H165.375V39.7344H170.988V42.6289H165.375V47.1172H170.52L170.648 45.1719H173.473V50H159.82ZM175.148 50V47.7852L176.953 47.4219V35.5273L175.148 35.1641V32.9375H176.953H180.703H182.801V35.1641L180.703 35.5273V47.1289H185.156L185.285 44.6797H188.145V50H175.148Z" fill="black"/>
</svg>
