<svg width="84" height="83" viewBox="0 0 84 83" fill="none" xmlns="http://www.w3.org/2000/svg">
<path d="M80.9804 56.9512C77.3103 65.991 70.5393 73.4673 61.8526 78.0712C53.1659 82.6752 43.1171 84.1134 33.4653 82.1341C23.8135 80.1549 15.1738 74.8842 9.05867 67.2449C2.94352 59.6056 -0.257433 50.0844 0.016183 40.3481C0.289799 30.6117 4.02055 21.2807 10.5553 13.9885C17.0901 6.69624 26.0125 1.90748 35.7605 0.460502C45.5086 -0.986473 55.4611 1.00055 63.8759 6.07371C72.2906 11.1469 78.6314 18.9829 81.7881 28.2101L76.3706 30.0196C73.6437 22.0488 68.1663 15.2797 60.8973 10.8973C53.6283 6.51491 45.0309 4.79844 36.6101 6.0484C28.1893 7.29836 20.4818 11.4351 14.8368 17.7344C9.19179 24.0337 5.96902 32.0943 5.73266 40.5049C5.4963 48.9156 8.26141 57.1404 13.5439 63.7395C18.8265 70.3387 26.2898 74.8917 34.6274 76.6014C42.965 78.3112 51.6455 77.0688 59.1495 73.0917C66.6534 69.1146 72.5025 62.6563 75.6729 54.8473L80.9804 56.9512Z" fill="white"/>
<circle cx="41.5" cy="41.5" r="29.5" fill="white"/>
<path d="M29.7695 50.2461C28.4492 50.2461 27.2617 50.1094 26.207 49.8359C25.1523 49.5625 24.1094 49.0703 23.0781 48.3594V44.082H25.9727L26.3359 46.4375C26.6328 46.7266 27.0938 46.9648 27.7188 47.1523C28.3438 47.3398 29.0273 47.4336 29.7695 47.4336C30.3398 47.4336 30.8203 47.3594 31.2109 47.2109C31.6016 47.0547 31.8984 46.8359 32.1016 46.5547C32.3047 46.2656 32.4062 45.9258 32.4062 45.5352C32.4062 45.1602 32.3125 44.8281 32.125 44.5391C31.9453 44.2422 31.6445 43.9688 31.2227 43.7188C30.8008 43.4688 30.2305 43.2227 29.5117 42.9805C28.1055 42.5508 26.9453 42.0977 26.0312 41.6211C25.125 41.1367 24.4453 40.5664 23.9922 39.9102C23.5469 39.2461 23.3242 38.4336 23.3242 37.4727C23.3242 36.543 23.5859 35.7266 24.1094 35.0234C24.6406 34.3125 25.3672 33.7539 26.2891 33.3477C27.2109 32.9414 28.2734 32.7305 29.4766 32.7148C30.8281 32.6836 32.0234 32.8281 33.0625 33.1484C34.1016 33.4688 35.0078 33.9297 35.7812 34.5312V38.5039H32.9922L32.5234 36.1953C32.2422 36.0312 31.8516 35.8867 31.3516 35.7617C30.8594 35.6367 30.3125 35.5742 29.7109 35.5742C29.1953 35.5742 28.7383 35.6484 28.3398 35.7969C27.9492 35.9375 27.6367 36.1523 27.4023 36.4414C27.1758 36.7227 27.0625 37.0703 27.0625 37.4844C27.0625 37.8203 27.1602 38.1211 27.3555 38.3867C27.5508 38.6523 27.8867 38.9102 28.3633 39.1602C28.8398 39.4023 29.5 39.6719 30.3438 39.9688C32.25 40.5156 33.6953 41.2188 34.6797 42.0781C35.6719 42.9375 36.168 44.082 36.168 45.5117C36.168 46.5039 35.8984 47.3555 35.3594 48.0664C34.8281 48.7695 34.082 49.3086 33.1211 49.6836C32.1602 50.0586 31.043 50.2461 29.7695 50.2461ZM37.2812 50V47.7852L39.0742 47.4219V35.5273L37.2812 35.1641V32.9375H39.0742H44.7227L49.1172 44.5156H49.1875L53.4648 32.9375H60.8594V35.1641L59.0547 35.5273V47.4219L60.8594 47.7852V50H53.5234V47.7852L55.3984 47.4219V44.6445L55.4688 36.793L55.3984 36.7812L50.4297 49.8828H47.5352L42.4727 36.9102L42.3906 36.9219L42.6367 44.1992V47.4219L44.6289 47.7852V50H37.2812Z" fill="black"/>
</svg>
